/* XPM */
static char *result[] = {
/* columns rows colors chars-per-pixel */
"32 32 55 1 ",
"  c #4F2913",
". c #522C14",
"X c #532F18",
"o c #553017",
"O c #56321A",
"+ c #5A351C",
"@ c #5D391F",
"# c #603A1F",
"$ c #583722",
"% c #5D3B22",
"& c #5D3E2A",
"* c #613D22",
"= c #5F4327",
"- c #634126",
"; c #64452A",
": c #69462A",
"> c #66492D",
", c #6B4B2E",
"< c #674B30",
"1 c #6B4E31",
"2 c #714F31",
"3 c #6D5133",
"4 c #6D553C",
"5 c #725435",
"6 c #725837",
"7 c #735638",
"8 c #755A3B",
"9 c #795D3D",
"0 c #7C603F",
"q c #6E5A45",
"w c #755B44",
"e c #795F41",
"r c #735F4D",
"t c #7D6343",
"y c #75644F",
"u c #766452",
"i c #776853",
"p c #786854",
"a c #816645",
"s c #836846",
"d c #846748",
"f c #866B4A",
"g c #886D4C",
"h c #8A714E",
"j c #8D7451",
"k c #8F7854",
"l c #917A56",
"z c #947E5A",
"x c #8F7F6F",
"c c #97815C",
"v c #99835E",
"b c #8F806F",
"n c #998461",
"m c #8E8070",
"M c #9B8E7C",
/* pixels */
"O<1<$:::,::,,,,,,,,,,:,::::$::1$",
"+MwwehjjjhljjlkjkjjjjjjjjjfawwM*",
"#1dsO++++2226667777752:#++Ooaa2$",
"*lddOdtt02#2,2,2222,,#,attaoasj*",
"*lggO#ffadd*dddddada:ggdgg++ddl*",
"*cfg#5::0hdg25200559hgg9::9#dfl*",
"*cgg*79a9#lghhg::dhhhl*7999*hgl*",
"*cjj*adggg:gkljhj5ajg:ggddf-hhz-",
"-chh*0ggggg922ljjjd,agddgdg*jgv*",
"-cjh#9gddda2hh#ljjjh2ddddds-jjn-",
"*cjj#599200hhl5227lfdaa20t9*jjn*",
"*cjj#57:gghhz#a0aa*zddda,98@hjn*",
"#cjk+,2ggg902adaaaa,92gaa,2$jhn*",
"+cjjo9ash#99dddgaddd7a*heae+hjzO",
"+9ta::,22222222527225222::*:aawo",
"oMmb2lzzzcccvvvvvnvzvzzzzlk1xxM.",
"Oyyq+909aaaassssgaddsaaaata@qii.",
".4%,99aatttttttsdaaassaaat003=q.",
" o09.XXXo+oOO+OO+O+oOO++ooo.00o.",
" 999.@3458>+;313315:$>8311+ 009 ",
".998 <. 666e  3353..8533  > 800 ",
" 880 33<+;68tt;=;;w835=+>13 886 ",
" 888 33<>;OO6800e>-7OO;;>11 666 ",
" 886 13><<-=%3187tt%-;>>>13 336 ",
" 666 31>>O43631++46064O>>11 463 ",
" 666 >>=O666<3o33X33669O=<< 366 ",
" 366 ++>633=%=<1<<=+=4461+$ 633 ",
" 313 431<3 ==<<<<<>== 33<tt 333 ",
" =<3 =%%= $$$%%%%%@O$O %%$% 33% ",
" yX1408908800tt0tttt000ttttt3.y ",
" qi==<11<3<3333<<33<3<<3<<<==iq ",
" OO+ OOXXOOXXXOOOOOOOOOOOOO $+O "
};
