/* XPM */
static char *result[] = {
/* columns rows colors chars-per-pixel */
"32 32 62 1 ",
"  c #512C16",
". c #532F18",
"X c #56321C",
"o c #5A361D",
"O c #5C391F",
"+ c #60391F",
"@ c #563621",
"# c #573823",
"$ c #5C3B23",
"% c #5E3F2A",
"& c #613E24",
"* c #5F412B",
"= c #624126",
"- c #64442C",
"; c #68462A",
": c #67482C",
"> c #6B4B2E",
", c #634730",
"< c #664B35",
"1 c #6C4D32",
"2 c #664F3B",
"3 c #684F38",
"4 c #704E33",
"5 c #6E5134",
"6 c #66513E",
"7 c #6C523B",
"8 c #715436",
"9 c #735738",
"0 c #765A3A",
"q c #795D3E",
"w c #7B603F",
"e c #675340",
"r c #6A5642",
"t c #6C5946",
"y c #6E5C49",
"u c #725D46",
"i c #7A5F40",
"p c #725F49",
"a c #795F48",
"s c #7D6241",
"d c #75634D",
"f c #7B634D",
"g c #7A6651",
"h c #7C6A54",
"j c #7F6E59",
"k c #7F715E",
"l c #806545",
"z c #826847",
"x c #826748",
"c c #856B4B",
"v c #896F4E",
"b c #8B714F",
"n c #806C55",
"m c #836E59",
"M c #8C7354",
"N c #81725E",
"B c #937B5A",
"V c #847563",
"C c #867866",
"Z c #8A7C6B",
"A c #8D806F",
"S c None",
/* pixels */
"SSSSSSSSSSS4000440004SSSSSSSSSSS",
"SSSSSS>9zc4wbbc00cccq+q44&SSSSSS",
"SSSS4+MBBB4lMbMssbbbw;llxq+&SSSS",
"SSSqc+Mcbv48w0w94qss0;4lxc+4>SSS",
"SSqbz+qzll>9sii09wsl04wwsi=zs>SS",
"S4csq&scll49sss00sss04lwqi>qsl;S",
"4isq0;llll80iis00wss04wwsi>qql9&",
"4z000;llll89issq0lss04wwws4lqqc;",
";q000>ssiq80iis0qswl0500sq1siqs=",
"&,111587af49iii0qlls01fs7111<,,o",
"=pfghjjNjmn9qis0wsss9mjhhhdfddp$",
"$1227777ua-4iis0qlss9&uu772221<@",
"X&+&=o==&-10qqi0wsss0>==&&&*&$&X",
"$9099&wwq849qii0slss050qww19099O",
"$9999>q00119qqi0wlss05wwww59599O",
"O9999>wqi989q0i9wlsw05www058999$",
"*8990:w00089w85589qw09wqqq18888#",
"O9885:w0005895ggcf8w99q0w055858O",
"O8890>w989589:dpud-q09w000:5555O",
"O8989>0989589*p31u%999q000:5555O",
"O8889>0985559***,,$955q9w0:5555o",
".*&*==:=55>50>*O$$>99>75==O**$$.",
"#udddhghgjh5999359905hhghddyddu#",
"o*<:<677tt%:89955999:%7t6<<<<<*X",
".ooO*X&&*$=188853989>**#$$oOOOO ",
"o5555o8855:1888>:9551:89w0*1>1>X",
"o5555*5578-3885>:855>:0090*>111o",
".**:::<*,,-**:*#**,:*:,,:*****$ ",
"*kkkkkkkkCCCCZAddAACkCkkkkkkkkj*",
"@6e666rtrtttyyy66ytttyyyrre6666X",
"@666eerrttttryye6yytyyyrrree662X",
" @o############oo##*######@@@@X "
};
