/* XPM */
static char *result[] = {
/* columns rows colors chars-per-pixel */
"32 32 10 1 ",
"  c #2E1E22",
". c #424040",
"X c #64648B",
"o c #A0A0A0",
"O c gray71",
"+ c #CBCBCB",
"@ c #D9D9DD",
"# c #E9E9E9",
"$ c white",
"% c None",
/* pixels */
"%%%%%%%%%%%%%%%%%%%%%%%%%%%%%%%%",
"%%%%%%%%%%%%%%%%...%%%%%%%%%%%%%",
"%%%%%%%%%%%%%%%.oOO.%%%%%%%%%%%%",
"%%%%%%%%%%%%%%%%.o+O.%%%%%%%%%%%",
"%%%%%%%%%%%%%%%%%.++$.%%%%%%%%%%",
"%%%%%%%%%%%%%%%%%.++$.%%%%%%%%%%",
"%%%%%%%%%%%%%%%%%.+O#.%%%%%%%%%%",
"%%%%%%%%%%%%%%%%.oO#.%%%%%%%%%%%",
"%%%%%%%%%%%%%%......%%%%%%%%%%%%",
"%%%%%%%%%%%%..oOOOo..%%%%%%%%%%%",
"%%%%%%%%%%%.oOO+++OOo.%%%%%%%%%%",
"%%%%%%%%%%.o.O+++++O.o.%%%%%%%%%",
"%%%%%%%%%%.+o.OOOOO.o+.%%%%%%%%%",
"%%%%%%%%%%.$+o.....o+$.%%%%%%%%%",
"%%%%%%%%%.o$$O.ooo.O$$o.%%%%%%%%",
"%%%%%%%%%.o$O+OOOOO+O$o.%%%%%%%%",
"%%%%%%%%%.oO+++++++++Oo.%%%%%%%%",
"%%%%%%%%.ooOO+++++++OOoo.%%%%%%%",
"%%%%%%%%.ooo..O+++O..ooo.%%%%%%%",
"%%%%%%%%.oo. @oOOOo@ .oo.%%%%%%%",
"%%%%%%%%.oOOXXoOOOoXXOOo.%%%%%%%",
"%%%%%%%%%.oOOOO+++OOOOo.%%%%%%%%",
"%%%%%%%%%..#OO+++++OO#..%%%%%%%%",
"%%%%%%%%%.o.#$$. .$$#.o.%%%%%%%%",
"%%%%%%%%%.oo.#$$#$$#.oo.%%%%%%%%",
"%%%%%%%%%.oOo..###..oOo.%%%%%%%%",
"%%%%%%%%%%.OOo.....oOO.%%%%%%%%%",
"%%%%%%%%%%.O+o.%%%.o+O.%%%%%%%%%",
"%%%%%%%%%%.++O.%%%.O++.%%%%%%%%%",
"%%%%%%%%%%.O++.%%%.++O.%%%%%%%%%",
"%%%%%%%%%%%...%%%%%...%%%%%%%%%%",
"%%%%%%%%%%%%%%%%%%%%%%%%%%%%%%%%"
};
