/* XPM */
static char *result[] = {
/* columns rows colors chars-per-pixel */
"32 32 28 1 ",
"  c #343B00",
". c #2F2F2F",
"X c #640A0E",
"o c #433C2F",
"O c #525F02",
"+ c #464727",
"@ c #515151",
"# c #5E5E5F",
"$ c #685F41",
"% c #665B4B",
"& c #766447",
"* c gray45",
"= c #971E2A",
"- c #E53A52",
"; c #887F61",
": c #FA6B73",
"> c #81850B",
", c #93AC3E",
"< c #9D894E",
"1 c #92845A",
"2 c #9FA457",
"3 c #A1C563",
"4 c gray58",
"5 c #979799",
"6 c #B4B4B4",
"7 c #D2D2D6",
"8 c white",
"9 c None",
/* pixels */
"99999999999999999999999999999999",
"99999999999999999999999999999999",
"99999999999999999999999999999999",
"9999999999999       999999999999",
"99999999999  OO>>>OO  9999999999",
"9999999999 O>>,,,,,>>O 999999999",
"999999999 O>,,,,,,,,,>O 99999999",
"999999999 >,,,33333,,,> 99999999",
"99999999 O>,,3333333,,>O 9999999",
"9999  99 >,,333333333,,> 99  999",
"999 >,O  >,33333333333,>  O,> 99",
"9999 >,> >,33333333333,> >,> 999",
"99999 O> >,33333333333,> >O 9999",
"99599o O >X<333333333<X> O 99999",
"957#o$9  O===<33333<===O  999999",
"9785#;o9 O=-:-=333=-:-=O 9999999",
"97855$o99 >=-=23332=-=> 99999999",
"97855$o... >,3333333,> ...999999",
"9785#;o@**@ O>,,,,,>O @**@.99999",
"9777o;$466*@         @*664*.9999",
"9575o$;446@.@*4***4*@.@644@.9999",
"99599o;o@..*466444664*..@@.99999",
"99999o;o4*.*44*@@@*44*.*46*.9999",
"99999o$o*@...@@*4*@@...@*44.9999",
"99999+11@..@@..@@@..@@..@11+9999",
"99999+&&..@*6*@666@*6*@..&&+9999",
"999999++9.@46.*464*.64@.9++99999",
"9999999999.4.@.*4*.@.4.999999999",
"99999999999.@6*...*6@.9999999999",
"99999999999+&&%+9+%&&+9999999999",
"99999999999+11&+9+&11+9999999999",
"999999999999+++999+++99999999999"
};
