/* XPM */
static char *result[] = {
/* columns rows colors chars-per-pixel */
"32 32 26 1 ",
"  c #343B00",
". c #2F2F2F",
"X c #640A0E",
"o c #433C2F",
"O c #525F02",
"+ c #464727",
"@ c #515151",
"# c #5E5E5F",
"$ c #685F41",
"% c #665B4B",
"& c #766447",
"* c gray45",
"= c #971E2A",
"- c #E53A52",
"; c #FA6B73",
": c #81850B",
"> c #93AC3E",
", c #9D894E",
"< c #92845A",
"1 c #9FA457",
"2 c #A1C563",
"3 c gray58",
"4 c #979799",
"5 c #B4B4B4",
"6 c #D2D2D6",
"7 c None",
/* pixels */
"77777777777777777777777777777777",
"77777777777777777777777777777777",
"77777777777777777777777777777777",
"7777777777777       777777777777",
"77777777777  OO:::OO  7777777777",
"7777777777 O::>>>>>::O 777777777",
"777777777 O:>>>>>>>>>:O 77777777",
"777777777 :>>222222>>>: 77777777",
"77777777 O>>22222222>>:O 7777777",
"77777777 :>2222222222>>: 7777777",
"77777777 >>2222222222>>: 7777777",
"77777777 >2222222222>  : 7777777",
"77777777 >222222222 O22  7777777",
"77777777 >2222,X22 >2:>  7777777",
"77777777 >22,===22>2O> O 7777777",
"77777777 :2=-;-=222O> :O 7777777",
"77777777 O>1=-=222>: OO 77777777",
"777777777 :>22222>::OO 777777777",
"7777777777 O::>>>::OO 7777777777",
"77777777oo7       ....7777777777",
"7777777o$$.@**3*@.@**@.777777777",
"77777777#$.@*355*@*33*.777777777",
"777774####..@353*....@.777777777",
"77777466##.@*@@..+35@.7777777777",
"7777774666#..@@@@+33*+7777777777",
"77777774666.*35@5+<<&+7777777777",
"77777777444.*33.3+<<%+7777777777",
"77777777777.@3..**+++77777777777",
"777777777777...@..@+777777777777",
"77777777777777+&<&%+777777777777",
"77777777777777+<<&%+777777777777",
"777777777777777++++7777777777777"
};
