/* XPM */
static char *result[] = {
/* columns rows colors chars-per-pixel */
"32 32 28 1 ",
"  c #343B00",
". c #2F2F2F",
"X c #640A0E",
"o c #433C2F",
"O c #525F02",
"+ c #464727",
"@ c #515151",
"# c #5E5E5F",
"$ c #685F41",
"% c #665B4B",
"& c #766447",
"* c gray45",
"= c #971E2A",
"- c #E53A52",
"; c #887F61",
": c #FA6B73",
"> c #81850B",
", c #93AC3E",
"< c #9D894E",
"1 c #92845A",
"2 c #9FA457",
"3 c #A1C563",
"4 c gray58",
"5 c #979799",
"6 c #B4B4B4",
"7 c #D2D2D6",
"8 c white",
"9 c None",
/* pixels */
"99999999999999999999999999999999",
"99999999999999999999999999999999",
"99999999999999999999999999999999",
"9999999999999       999999999999",
"99999999999  OO>>>OO  9999999999",
"9999999999 O>>,,,,,>>O 999999999",
"999999999 O>,,,,,,,,,>O 99999999",
"999999999 >,,,333333,,> 99999999",
"99999999 O>,,33333333,,O 9999999",
"99999999 >,,3333333333,> 9999999",
"99999999 >,,3333333333,, 9999999",
"99999999 >  ,3333333333, 9999999",
"99999999  33O 333333333, 9999999",
"99999999  ,>3, 33X<3333, 9999999",
"99999999 O ,O3,33===<33, 9999999",
"99999999 O> ,O333=-:-=3> 9999999",
"999999999 OO >,333=-=2,O 9999999",
"9999999999 OO>>,33333,> 99999999",
"99999999999 OO>>,,,>>O 999999999",
"99999999999....       9999999999",
"9999999999.@**@.@*4**@oo99999999",
"9999999999.*44*@*664oo$$o9999999",
"9999999999.@....*46o$;;#99999999",
"99999999999.@64+.o$;;555##599999",
"99999999999+*44o$;;o#55587599999",
"99999999999+&11$$oo4#57875999999",
"99999999999+%11oo.45788759999999",
"999999999999+++**..4555599999999",
"9999999999999+@..@...99999999999",
"9999999999999+%&1&+9999999999999",
"9999999999999+%&11+9999999999999",
"99999999999999++++99999999999999"
};
