/* XPM */
static char *result[] = {
/* columns rows colors chars-per-pixel */
"32 32 25 1 ",
"  c #343B00",
". c #2F2F2F",
"X c #433C2F",
"o c #525F02",
"O c #464727",
"+ c #515151",
"@ c #5F5955",
"# c #5E5E5F",
"$ c #685F41",
"% c #665B4B",
"& c #766447",
"* c gray45",
"= c #7F7974",
"- c #887F61",
"; c #81850B",
": c #93AC3E",
"> c #92845A",
", c #A1C563",
"< c #958F89",
"1 c gray58",
"2 c #979799",
"3 c #A8A29C",
"4 c #B4B4B4",
"5 c #D2D2D6",
"6 c None",
/* pixels */
"66666666666666666666666666666666",
"66666666666666666666666666666666",
"66666666666666666666666666666666",
"6666666666666       666666666666",
"66666666666  oo;;;oo  6666666666",
"6666666666 o;;:::::;;o 666666666",
"666666666 o;::,,,,,::;o 66666666",
"666666666 ;::,,,,,,,::; 66666666",
"66666666 o;:,,,,,,,,,:;o 6666666",
"6666  66 ;::,,,,,,,,,::; 66  666",
"666 ;:o  ;::,,,,,,,,,::;  o:; 66",
"6666 ;:; ;::,,,,,,,,,::; ;:; 666",
"66666 :: ;:::,,,,,,,:::; :: 6666",
"666666 o ;;:::,,,,,:::;; o 66666",
"6666666  o;:::::::::::;o  6X6266",
"66666666 o;;:::::::::;;o 66$X#26",
"666666666 o;;;:::::;;;o 66X$##56",
"6666666....o;;;;;;;;;o....X$2#56",
"666666.+11+..+++++++..+11+.-2#56",
"66666.*1441+*1111111*+1441*.##56",
"66666.+114+.+*******+.+411+.X526",
"666666.++..**1111111**..++.$X266",
"66666.*41*.+**11111**+.*14*.6666",
"66666.11*+..++*****++..+*11.6666",
"66666O>>+..+...+++...+..+>>O6666",
"66666O&&..+*4=<3<3<=4*+..&&O6666",
"666666OO6.+14=@@@@@=41+.6OO66666",
"6666666666.1@<=OOO=<@1.666666666",
"66666666666.+**...**+.6666666666",
"66666666666O&>%O6O%>&O6666666666",
"66666666666O>>&O6O&>>O6666666666",
"666666666666OOO666OOO66666666666"
};
