/* XPM */
static char *result[] = {
/* columns rows colors chars-per-pixel */
"32 32 52 1 ",
"  c black",
". c #131209",
"X c #1A180D",
"o c #252117",
"O c #2C281C",
"+ c #37301B",
"@ c #3E361F",
"# c #332E22",
"$ c #433B2C",
"% c #52492B",
"& c #554D32",
"* c #5F5630",
"= c #5F573F",
"- c #655C34",
"; c #6A5F3E",
": c #6D6238",
"> c #70643B",
", c #71663C",
"< c #675E41",
"1 c #6E6340",
"2 c #6F6449",
"3 c #746941",
"4 c #776B42",
"5 c #786C4F",
"6 c #7E7247",
"7 c #7D7153",
"8 c #837650",
"9 c #817555",
"0 c #857850",
"q c #8A7D52",
"w c #8A7D57",
"e c #847858",
"r c #96885F",
"t c #948561",
"y c #958762",
"u c #988A62",
"i c #998A65",
"p c #9B8C66",
"a c #A09066",
"s c #A29269",
"d c #A0906B",
"f c #A6956E",
"g c #A99970",
"h c #AB9A71",
"j c #B09F75",
"k c #B2A176",
"l c #B5A479",
"z c #B7A57A",
"x c #B8A77B",
"c c #BBA978",
"v c #D5C08D",
"b c None",
/* pixels */
"bbbbbbbbbbbbbbbbbbbbbbbbbbbbbbbb",
"bbbbbbbbbbbbbbbbbbbbbbbbbbbbbbbb",
"bbbbbbbbbbbbbbbbbbbbbbbbbbbbbbbb",
"bbbbbbbbbbbbbbbbbbbbbbbbbbbbbbbb",
"bbbbbbbbbbbbbbbbbbbbbbbbbbbbbbbb",
"bbbbbbbbbbbbbbbbbbbbbbbbbbbbbbbb",
"bbbbbbbbbbbbbbbbbbbbbbbbbbbbbbbb",
"bbbbbbbbbbbbbbbbbbbbbbbbbbbbbbbb",
"bbbbbbbbbbbbbbbbbbbbbbbbbbbbbbbb",
"bbbbbb     bbbbb   @%e3bbbbbbbbb",
"bbbbbb#j::XX. XX:*%.+ag,6bbbbbbb",
"bbbbbb#j::XX. XX:*%.+ag,6bbbbbbb",
"bbbbbbgj::::% :::+  +:t6j:bbbbbb",
"bbbbbbxc::::::::X9g71X8jptXbbbbb",
"bbbbbbxc::::::::X9g71X8jptXbbbbb",
"bbbb:tvvq-4>::*% fjpt4<s55O;:bbb",
"bbbbbjlk$7vvz fi2rpyttuudbbbbbbb",
"bbbbbjlk$7vvz fi2rpyttuudbbbbbbb",
"bbbbbbbj$jjjhottw=p0&6jjbjbbbbbb",
"bbbbbbbbjbjbjjjjjbbbjbbbbbbbbbbb",
"bbbbbbbbjbjbjjjjjbbbjbbbbbbbbbbb",
"bbbbbbbbbbbbjjbbbbbbbbbbbbbbbbbb",
"bbbbbbbbbbbbjjbbbbbbbbbbbbbbbbbb",
"bbbbbbbbbbbbjjbbbbbbbbbbbbbbbbbb",
"bbbbbbbbbbbbbbbbbbbbbbbbbbbbbbbb",
"bbbbbbbbbbbbbbbbbbbbbbbbbbbbbbbb",
"bbbbbbbbbbbbbbbbbbbbbbbbbbbbbbbb",
"bbbbbbbbbbbbbbbbbbbbbbbbbbbbbbbb",
"bbbbbbbbbbbbbbbbbbbbbbbbbbbbbbbb",
"bbbbbbbbbbbbbbbbbbbbbbbbbbbbbbbb",
"bbbbbbbbbbbbbbbbbbbbbbbbbbbbbbbb",
"bbbbbbbbbbbbbbbbbbbbbbbbbbbbbbbb"
};
