/* XPM */
static char *result[] = {
/* columns rows colors chars-per-pixel */
"32 32 6 1 ",
"  c black",
". c #7E2553",
"X c #FF004D",
"o c #FFCCAA",
"O c #FFF1E8",
"+ c None",
/* pixels */
"++++++++++++++++++++++++++++++++",
"++++++++++++++++++++++++++++++++",
"++++++++++++++++++++++++++++++++",
"++++++++++++++++++++++++++++++++",
"++++++++++++++++++++++++++++++++",
"++++++++++++++++++++++++++++++++",
"++++++++++++++++++++++++++++++++",
"+++++++                  +++++++",
"+++++++                  +++++++",
"+++++  XXXXooooooooooOOoo  +++++",
"+++++  XXXXooooooooooOOoo  +++++",
"++++ XXXX..XOOooooooOooXXoo ++++",
"++  XXX.....XXOOOOOOOXXXXXXo  ++",
"++  XXX.....XXOOOOOOOXXXXXXo  ++",
"++  oOOooooOOOOOOOOOOOOooOOO  ++",
"++  oOOooooOOOOOOOOOOOOooOOO  ++",
"++++ OOXX.......OOooXXX..XX ++++",
"++++ OOXX.......OOooXXX..XX ++++",
"+++++  ooXX.....OOOOX..XX  +++++",
"+++++  ooXX.....OOOOX..XX  +++++",
"+++++++  XXX..XXOOoo.XX  +++++++",
"+++++++++  X..XXOO..X  +++++++++",
"+++++++++  X..XXOO..X  +++++++++",
"+++++++++++ ....ooXX +++++++++++",
"+++++++++++ ....ooXX +++++++++++",
"++++++++++++  ..XX  ++++++++++++",
"++++++++++++  ..XX  ++++++++++++",
"++++++++++++++    ++++++++++++++",
"++++++++++++++++++++++++++++++++",
"++++++++++++++++++++++++++++++++",
"++++++++++++++++++++++++++++++++",
"++++++++++++++++++++++++++++++++"
};
