/* XPM */
static char *result[] = {
/* columns rows colors chars-per-pixel */
"32 32 10 1 ",
"  c #2E1E22",
". c #424040",
"X c #64648B",
"o c #A0A0A0",
"O c gray71",
"+ c #CBCBCB",
"@ c #D9D9DD",
"# c #E9E9E9",
"$ c white",
"% c None",
/* pixels */
"%%%%%%%%%%%%%%%%%%%%%%%%%%%%%%%%",
"%%%%%%%%%%%%%%%%%%%%%%%%%%%%%%%%",
"%%%%%%%%%%%%%%%%%%%%%%%%%%%%%%%%",
"%%%%%%%%%%%%%%%%%%%%%%%%%%%%%%%%",
"%%%%%%%%%%%%%%%%%%%%%%%%%%%%%%%%",
"%%%%%%%%%%%%%%%%%%%%%%%%%%%%%%%%",
"%%%%%%%%%%%%%%%%%%%%%%%%%%%%%%%%",
"%%%%%%%%%%%%%%%%%%%%%%%%%%%%%%%%",
"%%%%%%%%%%%.%%%%%%%%%%%%%%%%%%%%",
"%%%%%%%%%%.o.%%%%%%%%%%%%%%%%%%%",
"%%%%%%%%%.o+o.%%%%%%%%%%%%%%%%%%",
"%%%%%%%%..+$o.%%%%%%%%%%%...%%%%",
"%%%%%%..o.$$$o.%%%%%%%%%.O+#.%%%",
"%%%%%.oOOO+$$O.%%%%%%%%%%.o+#.%%",
"%%%%.oO++++O$Oo.%%%%%%%%%%.+$#.%",
"%%%.oO++++++OOO.%%%%%%%%%%.+$#.%",
"%%%.O+++++++++Oo.%%%%%%%%%.+$#.%",
"%%%.OO..o+++++OOo......%%.oO$.%%",
"%%.oOo@ .+++++OOOOOOOoo..oOO#.%%",
"%.oO+oXXO+++++O++++++++Oo.O#.%%%",
"%. .++OO++++++++++++++++Oo..%%%%",
"%.#$$++++++++++++++++++++Oo.%%%%",
"%%.#$$$++++++++++++O+++++Oo.%%%%",
"%%%..#$$###+++++++Oo+++++Oo.%%%%",
"%%%%%......o+++#$$#oO++++Oo.%%%%",
"%%%%%%%%%.o.+++.####.oO+Oo.%%%%%",
"%%%%%%%%%.o.++O.......oOOo.%%%%%",
"%%%%%%%%.oo.++O.%%%.o.o++o.%%%%%",
"%%%%%%%%.o.O++o.%%%.o.O++.%%%%%%",
"%%%%%%%%%..++O.%%%%%..++O.%%%%%%",
"%%%%%%%%%%%...%%%%%%%%...%%%%%%%",
"%%%%%%%%%%%%%%%%%%%%%%%%%%%%%%%%"
};
