/* XPM */
static char *e1467cdee4884e15c90574040d779f215PH72X3nPZdZ0xFl[] = {
/* columns rows colors chars-per-pixel */
"32 32 17 1 ",
"  c None",
". c #170625",
"X c #77271B",
"o c #993B1E",
"O c #A43E0E",
"+ c #9A3C20",
"@ c #BA5125",
"# c #C76429",
"$ c #CF732D",
"% c #C57F5D",
"& c #E88C2F",
"* c #E88D31",
"= c #F3A83F",
"- c #F3A940",
"; c #F5CA5C",
": c #F9C17B",
"> c #FFE18F",
/* pixels */
"                                ",
"                                ",
"                                ",
"                                ",
"                                ",
"                                ",
"                                ",
"                                ",
"                                ",
"                                ",
"           ....                 ",
"          .OXXX.                ",
"         .X@*$$@..              ",
"         .+@@@$#+.              ",
"         X@$#-#&$$+.            ",
"        .+##=&;-#@X.            ",
"         .@$$@&&$#:%.....       ",
"         .o#@#$###+%::>:        ",
"         .XXX++++@..%>%.        ",
"           .X..+... .>%:.       ",
"            .  .     ...        ",
"                                ",
"                                ",
"                                ",
"                                ",
"                                ",
"                                ",
"                                ",
"                                ",
"                                ",
"                                ",
"                                "
};
