/* XPM */
static char *result[] = {
/* columns rows colors chars-per-pixel */
"32 32 10 1 ",
"  c #2E1E22",
". c #424040",
"X c #64648B",
"o c #A0A0A0",
"O c gray71",
"+ c #CBCBCB",
"@ c #D9D9DD",
"# c #E9E9E9",
"$ c white",
"% c None",
/* pixels */
"%%%%%%%%%%%%%%%%%%%%%%%%%%%%%%%%",
"%%%%%%%%%%%%%%%%%%%%%%%%%%%%%%%%",
"%%%%%%%%%%%%%%%%%%%%%%%%%%%%%%%%",
"%%%%%%%%%%%%%%%%%%%%%%%%%%%%%%%%",
"%%%%%%%%%%%%%%%%%%%%%%%%%%%%%%%%",
"%%%%%%%%%%%%%%%%%%%%%%%%%%%%%%%%",
"%%%%%%%%%%%%%%%%%%%%%%%%%%%%%%%%",
"%%%%%%%%%%%%%%%%%%%%%%%%%%%%%%%%",
"%%%%%%%%%%%%%%%%%%%%.%%%%%%%%%%%",
"%%%%%%%%%%%%%%%%%%%.o.%%%%%%%%%%",
"%%%%%%%%%%%%%%%%%%.o+o.%%%%%%%%%",
"%%%%...%%%%%%%%%%%.o$+..%%%%%%%%",
"%%%.#+O.%%%%%%%%%.o$$$.o..%%%%%%",
"%%.#+o.%%%%%%%%%%.O$$+OOOo.%%%%%",
"%.#$+.%%%%%%%%%%.oO$O++++Oo.%%%%",
"%.#$+.%%%%%%%%%%.OOO++++++Oo.%%%",
"%.#$+.%%%%%%%%%.oO+++++++++O.%%%",
"%%.$Oo.%%......oOO+++++o..OO.%%%",
"%%.#OOo..ooOOOOOOO+++++. @oOo.%%",
"%%%.#O.oO++++++++O+++++OXXo+Oo.%",
"%%%%..oO++++++++++++++++OO++. .%",
"%%%%.oO++++++++++++++++++++$$#.%",
"%%%%.oO+++++O++++++++++++$$$#.%%",
"%%%%.oO+++++oO+++++++###$$#..%%%",
"%%%%.oO++++Oo#$$#+++o......%%%%%",
"%%%%%.oO+Oo.####.+++.o.%%%%%%%%%",
"%%%%%.oOOo.......O++.o.%%%%%%%%%",
"%%%%%.o++o.o.%%%.O++.oo.%%%%%%%%",
"%%%%%%.++O.o.%%%.o++O.o.%%%%%%%%",
"%%%%%%.O++..%%%%%.O++..%%%%%%%%%",
"%%%%%%%...%%%%%%%%...%%%%%%%%%%%",
"%%%%%%%%%%%%%%%%%%%%%%%%%%%%%%%%"
};
