/* XPM */
static char *result[] = {
/* columns rows colors chars-per-pixel */
"32 64 51 1 ",
"  c #4C2711",
". c #4E2812",
"X c #4F2D1A",
"o c #512C16",
"O c #512E1A",
"+ c #52311D",
"@ c #5A371E",
"# c #5B381F",
"$ c #533421",
"% c #593622",
"& c #5C3C26",
"* c #573E2E",
"= c #5E3E29",
"- c #5F402D",
"; c #61422E",
": c #614533",
"> c #634836",
", c #644B39",
"< c #5A4E42",
"1 c #5E5246",
"2 c #5F5449",
"3 c #62574C",
"4 c #645A4F",
"5 c #645C51",
"6 c #676056",
"7 c #696155",
"8 c #676158",
"9 c #6B655B",
"0 c #6E685E",
"q c #716256",
"w c #6F6A60",
"e c #726D63",
"r c #777066",
"t c #7A7267",
"y c #757269",
"u c #7A766B",
"i c #7E796E",
"p c #7E7A71",
"a c #80796F",
"s c #807D74",
"d c #848277",
"f c #868478",
"g c #89867A",
"h c #8A887A",
"j c #8D8B82",
"k c #918F86",
"l c #96938B",
"z c #99968E",
"x c #9D9991",
"c c #A09C94",
"v c None",
/* pixels */
"vvvvvvvvvvvvvvvvvvvvvvvvvvvvvvvv",
"vvvvvvvvvvvvvvvvvvvvvvvvvvvvvvvv",
"vvvvvvvvvvvvvvvvvvvvvvvvvvvvvvvv",
"vvvvvvvvvvvvvvvvvvvvvvvvvvvvvvvv",
"vvvvvvvvvvvvvvvvvvvvvvvvvvvvvvvv",
"vvvvvvvvvvvvvvvvvvvvvvvvvvvvvvvv",
"vvvvvvvvvvvvvvvvvvvvvvvvvvvvvvvv",
"vvvvvvvvvvvvvvvvvvvvvvvvvvvvvvvv",
"vvvvvvvvvvvvvvvvvvvvvvvvvvvvvvvv",
"vvvvvvvvvvvvvvvvvvvvvvvvvvvvvvvv",
"vvvvvvvvvvvvvvvvvvvvvvvvvvvvvvvv",
"vvvvvvvvvvvvvvvvvvvvvvvvvvvvvvvv",
"vvvvvvvvvvvvvvvvvvvvvvvvvvvvvvvv",
"vvvvvvvvvvvvvvvvvvvvvvvvvvvvvvvv",
"vvvvvvvvvvvvvvvvvvvvvvvvvvvvvvvv",
"vvvvvvvvvvvvvvvvvvvvvvvvvvvvvvvv",
"vvvvvvvvvvvvvvvvvvvvvvvvvvvvvvvv",
"vvvvvvvvvvvvvvvvvvvvvvvvvvvvvvvv",
"vvvv-::::>>>,,,,,,,>>>>>>:--vvvv",
"vvv&jjjjgjddddddddddsddddddj=vvv",
"vv*jjjjjjsddddddsdddddddddddj=vv",
"v&jddddddddddddddddsjjjddddddj&v",
";jdddddddddfddfdddjjjjjdddsdddj:",
"-jdddddd5555689789999885ddddddj&",
";jddddd3&&&=----;====&&&3dddddh&",
":jddfd3@qqrrrrrrrrrtqqqq@3ddddj&",
";kdddd#qqrrrrrrrrrrrrrrqq@dfffh&",
";kffff#qrrrrrrrtuurrrrrtt@fdffz-",
";kffff@7urrrruuuuiurttttt@ffffl&",
";kffff@uuuutruuiuuuutturt@ffddl&",
";kffff#uuuiuuuuuiuuutttrt@ffffl-",
";lffff#uiiuiiiiiiiiiuuuut@ffffl-",
";ldgdg@appasppaaauauuutta#dgffz=",
"-lgdgg@appaapaaassapaautt#hgggx=",
"-zhggg#apus55sasaaapppatt#kggdx&",
"=zkhggg#upqq05qqaspappaa#jhgggx;",
"-xhkgggg%%##%@@#@######@kjjgggz=",
"=chkghghgghhjgsjgggghhhkjgggggx=",
"=achhhgggggggggghghhhhhhhhhggz7+",
"=aachggggggggggghhhghhhghhggx7q+",
"%uusccxxzzzzllllllllllllllzx657O",
"%tul9yyyrrwwwwwwwupapwwww9wws75o",
"%uj99yr0ww0ww00w00000000wwwwws7o",
"os990099q000w0qw000000009w9w99s.",
" j9w9w9w000wwwwwww000000wew99wd.",
" p599999$%++OOOOOOO%OOOOeeew99p.",
" p9999w$<<5454445455q545$ew999yX",
" p8999O<<54545q5555555555$w999y.",
" pw599O<45454545755555575@9999y.",
" y5w99O145545455555445554@9989e ",
"Xy8889$343444554553544445+7999y.",
" y8888$233444444333343442+9788e.",
" y8888O113444444333322255+6966y.",
" w8558O331345454333335252+6686e ",
" w5555$113313444353222222+6666e ",
" ww585$11<133333322222222+5666e ",
"Xw8555w$1133333312211111-88565e.",
" w86555e@oOOooOO+++XX+X+855556w.",
" w9855550e0eee00eeewweee855555w.",
" w9988555454499989988555558555w.",
"v+0099555255555555888555555559.v",
"vv 78555555555255555555555559.vv",
"vvvo852555355555555555555558.vvv",
"vvvv                     X  vvvv"
};
