/* XPM */
static char *result[] = {
/* columns rows colors chars-per-pixel */
"32 32 7 1 ",
"  c #424040",
". c #A0A0A0",
"X c gray71",
"o c #CBCBCB",
"O c #E9E9E9",
"+ c white",
"@ c None",
/* pixels */
"@@@@@@@@@@@@@@@@@@@@@@@@@@@@@@@@",
"@@@@@@@@@@@@@@@@@@@@@@@@@@@@@@@@",
"@@@@@@@@@@@@@@@@@@@@@@@@@@@@@@@@",
"@@@@@@@@@@@ @@@@@@@@@ @@@@@@@@@@",
"@@@@@@@@@@ . @@@@@@@ . @@@@@@@@@",
"@@@@@@@@@@ X. @@@@@ .X @@@@@@@@@",
"@@@@@@@@@@ XX.     .XX @@@@@@@@@",
"@@@@@@@@@ .XoX ... XoX. @@@@@@@@",
"@@@@@@@@@ .XooXXXXXooX. @@@@@@@@",
"@@@@@@@@@ .ooooooooooo. @@@@@@@@",
"@@@@@@@@ .XoooooooooooX. @@@@@@@",
"@@@@@@@@ .XoooooooooooX. @@@@@@@",
"@@@@@@@@ ..XoooooooooX.. @@@@@@@",
"@@@@@@@@ ...XXXoooXXX... @@@@@@@",
"@@@@@@@@@ . .XoooooX. . @@@@@@@@",
"@@@@@@@@@  .XoooooooX.  @@@@@@@@",
"@@@@@@@@@ .XXoooooooXX. @@@@@@@@",
"@@@@@@@@@ ...Xoo   X... @@@@@@@@",
"@@@@@@@@@@ .Xoo +++ X. @@@@@@@@@",
"@@@@@@@@@ .Xoo ++o ooX. @@@@@@@@",
"@@@@@@@@@ .oo ++o oooo. @@@@@@@@",
"@@@@@@@@@ Xoo ++o ooooX @@@@@@@@",
"@@@@@@@@@ Xoo O++ ooooX @@@@@@@@",
"@@@@@@@@@ .Xoo .+++ooX. @@@@@@@@",
"@@@@@@@@@ ..XO+++++OX.. @@@@@@@@",
"@@@@@@@@@ ... OOOOO ... @@@@@@@@",
"@@@@@@@@@@ .X.     .X. @@@@@@@@@",
"@@@@@@@@@@ Xo. @@@ .oX @@@@@@@@@",
"@@@@@@@@@@ ooX @@@ Xoo @@@@@@@@@",
"@@@@@@@@@@ Xoo @@@ ooX @@@@@@@@@",
"@@@@@@@@@@@   @@@@@   @@@@@@@@@@",
"@@@@@@@@@@@@@@@@@@@@@@@@@@@@@@@@"
};
