/* XPM */
static char *baf29cf7abf24c4dfec1e95c95b759edg9T54aeEVLN1xveC[] = {
/* columns rows colors chars-per-pixel */
"32 32 21 1 ",
"  c None",
". c #4F2913",
"X c #53311C",
"o c #553621",
"O c #553622",
"+ c #553723",
"@ c #573A27",
"# c #5A3B27",
"$ c #5B3C29",
"% c #5A412E",
"& c #5A422F",
"* c #5A4230",
"= c #5B4330",
"- c #655444",
"; c #868579",
": c #8E8C83",
"> c #8E8D84",
", c #8F8D84",
"< c #8F8D85",
"1 c #8F8E85",
"2 c #94928B",
/* pixels */
"######                          ",
";;;;;;#                         ",
";;;;;;;#                        ",
";;;;;;;#                        ",
"2;;;;;;#                        ",
"%2;;;;;#                        ",
"=2;;;;;#                        ",
"=2;;;;;$                        ",
"=2;;;;;$                        ",
"%2:>>><$                        ",
"@.----.$                        ",
"@2;;;;;$                        ",
"+2;;;;;$                        ",
"O2;;;;;$                        ",
"O2;;;;;$                        ",
"X2;;;;;$                        ",
".2;;;;;$                        ",
".2;;;;;$                        ",
".2;;;;;$                        ",
".2;;;;;$                        ",
".2;;;;;$                        ",
".2;;;;;$                        ",
".2;;;;;$                        ",
".2;;;;;$                        ",
".2;;;;;$                        ",
".2>>><<$                        ",
"..----.$                        ",
".2;;;;;$                        ",
".2;;;;;$                        ",
".2;;;;;$                        ",
".2;;;;;$                        ",
".2;;;;;$                        "
};
