/* XPM */
static char *_6b9b57430fc4157ffb858123421934f7IXjzf0urScKlQ7V[] = {
/* columns rows colors chars-per-pixel */
"32 32 71 1 ",
"  c None",
". c #4B2511",
"X c #4C2611",
"o c #4D2712",
"O c #4E2812",
"+ c #4F2913",
"@ c #502A15",
"# c #502C16",
"$ c #512D18",
"% c #522E19",
"& c #522E1A",
"* c #522F1A",
"= c #55321D",
"- c #56331E",
"; c #55341F",
": c #655E55",
"> c #655F55",
", c #655F56",
"< c #665F56",
"1 c #665F57",
"2 c #666057",
"3 c #666158",
"4 c #676158",
"5 c #676159",
"6 c #676258",
"7 c #676259",
"8 c #686259",
"9 c #686359",
"0 c #68625A",
"q c #68635A",
"w c #69635B",
"e c #6A635B",
"r c #68645A",
"t c #6A645B",
"y c #6A645C",
"u c #6B645C",
"i c #6B655C",
"p c #6B655D",
"a c #6A665D",
"s c #6B665D",
"d c #6C665D",
"f c #6C665E",
"g c #6D675F",
"h c #6C685C",
"j c #6D685D",
"k c #6C695D",
"l c #6D695D",
"z c #6C685E",
"x c #6D695E",
"c c #6D695F",
"v c #6E695E",
"b c #6E6A5E",
"n c #6E6A5F",
"m c #6E6B5F",
"M c #6F6B5F",
"N c #6E6960",
"B c #6E6A60",
"V c #6E6A61",
"C c #6F6B61",
"Z c #76736B",
"A c #7A776C",
"S c #7F7C74",
"D c #807D75",
"F c #807E76",
"G c #848179",
"H c #85837B",
"J c #86837B",
"K c #868579",
"L c #94928B",
"P c #9A9891",
"I c #9C9A92",
/* pixels */
"                        -LKKKKK-",
"                        -PKKKKKK",
"                        -PKKKKKK",
"                        -PKKKKKK",
"                        @JPPPPIL",
"                        oJCBBBBC",
"                        OJBBznnn",
"                        OGszzzgg",
"                        OFssssgs",
"                        oFeeesge",
"                        OS995e9e",
"                        OF995e9e",
"                        oZ499r99",
"                        oZ,25559",
"                        oZ2,2555",
"                        oZ,,,115",
"                        OZ,,,<<<",
"                         @,,,,,4",
"                          o...o.",
"                          OAhhhh",
"                          OAhhhh",
"                          @Ahhhh",
"                          @Ahhhh",
"                          OAhhhg",
"                          @Anghh",
"                          #Anhhn",
"                          $Abhhn",
"                          $Ahhhn",
"                          $Abnng",
"                          *Abbbl",
"                          $Abbbb",
"                          =AMMMb"
};
