/* XPM */
static char *f64ae26479fd4fe4cfb4e06bac9fc0c3RewlgcVKG3GWOza3[] = {
/* columns rows colors chars-per-pixel */
"32 32 42 1 ",
"  c None",
". c #4F2913",
"X c #5B3C29",
"o c #61584B",
"O c #62584B",
"+ c #62584C",
"@ c #63584C",
"# c #63594C",
"$ c #63594D",
"% c #655C50",
"& c #655E55",
"* c #655F55",
"= c #665F56",
"- c #666057",
"; c #676057",
": c #676157",
"> c #676158",
", c #686158",
"< c #686159",
"1 c #686259",
"2 c #686359",
"3 c #68635A",
"4 c #69635A",
"5 c #69635B",
"6 c #69645A",
"7 c #6A645B",
"8 c #6A655B",
"9 c #6B645C",
"0 c #6A655C",
"q c #6B655D",
"w c #6A665C",
"e c #6B665C",
"r c #6B665D",
"t c #726F67",
"y c #76736B",
"u c #79766E",
"i c #7A776F",
"p c #7E7B73",
"a c #86837B",
"s c #868579",
"d c #94928B",
"f c #99978F",
/* pixels */
".sssssdX                        ",
"ssssssdX                        ",
"ssssssfX                        ",
"ssssssfX                        ",
"ddffffa.                        ",
"rrr000a.                        ",
"rrr000a.                        ",
"er0777p.                        ",
"e77705p.                        ",
"744454p.                        ",
"0>4>4>i.                        ",
"5727>4i.                        ",
">>=4=4u.                        ",
">44>4=y.                        ",
"44=4==y.                        ",
"======t.                        ",
"-=====t.                        ",
"======.                         ",
"......                          ",
"OOooo.                          ",
"O++OO.                          ",
"O++OO.                          ",
"+++OO.                          ",
"+$OO+.                          ",
"OOOO%.                          ",
"+OO$%.                          ",
"+$$%%.                          ",
"++$$%.                          ",
"O$%%%.                          ",
"$$%%%.                          ",
"#$%%%.                          ",
"#;%%%.                          "
};
