/* XPM */
static char *e1c1b5d93dd34854ea2fcf3fd37de6dc2u6IobBM8uhr5ESu[] = {
/* columns rows colors chars-per-pixel */
"32 32 55 1 ",
"  c None",
". c #4F2913",
"X c #502D19",
"o c #54301B",
"O c #54311C",
"+ c #54311D",
"@ c #54321D",
"# c #54331D",
"$ c #54321E",
"% c #55341F",
"& c #543320",
"* c #553521",
"= c #553621",
"- c #553723",
"; c #553624",
": c #553824",
"> c #563826",
", c #563926",
"< c #5A3B27",
"1 c #5A3C29",
"2 c #5B3C29",
"3 c #5B3F2D",
"4 c #5C412F",
"5 c #5E4534",
"6 c #5F4737",
"7 c #604939",
"8 c #645444",
"9 c #655444",
"0 c #827F74",
"q c #828074",
"w c #838074",
"e c #828175",
"r c #838175",
"t c #848276",
"y c #848277",
"u c #848377",
"i c #858377",
"p c #858478",
"a c #868478",
"s c #868579",
"d c #8A867F",
"f c #8A8680",
"g c #8B8780",
"h c #8B8781",
"j c #8C8881",
"k c #8C8982",
"l c #8E8A83",
"z c #8F8C85",
"x c #8F8D86",
"c c #918E87",
"v c #918E88",
"b c #929089",
"n c #93918A",
"m c #94918A",
"M c #94928B",
/* pixels */
"                          <<<<<<",
"                         <ssssss",
"                        <sssssss",
"                        <sssssss",
"                        2ssssssM",
"                        2sssssM6",
"                        2sssssM7",
"                        2sssssn6",
"                        2sssssM5",
"                        2MMMMMM5",
"                        2.9999.4",
"                        2sssssM3",
"                        2sssssM2",
"                        2sssssMX",
"                        2sssssMO",
"                        2sssssMO",
"                        2ssssin@",
"                        2sssisc%",
"                        2ssssiz=",
"                        2sssuel=",
"                        2sssueg;",
"                        2ssueih,",
"                        2ssieed,",
"                        2ssii0g,",
"                        2ssuu0j,",
"                        2kkkkkk;",
"                        2.9999X;",
"                        2sssuuc=",
"                        2sssssv&",
"                        2ssssuv@",
"                        2ssssin$",
"                        2sssssM$"
};
