/* XPM */
static char *_a2d5702f7aa46a2c14267ada78fb906DVIi25agaAuPFPJR[] = {
/* columns rows colors chars-per-pixel */
"32 32 12 1 ",
"  c None",
". c #4F2913",
"X c #5B3C29",
"o c #655444",
"O c #868579",
"+ c #8D8B82",
"@ c #8D8C82",
"# c #8E8C83",
"$ c #8E8D84",
"% c #908E86",
"& c #908F86",
"* c #94928B",
/* pixels */
".*OOOOOX                        ",
".*OOOOOX                        ",
".*OOOOOX                        ",
".*OOOOOX                        ",
".*OOOOOX                        ",
".*OOOOOX                        ",
".*OOOOOX                        ",
".*OOOOOX                        ",
".*OOOOOX                        ",
".*OOOOOX                        ",
".*%%&&%X                        ",
"..oooo.X                        ",
".*OOOOOX                        ",
".*OOOOOX                        ",
".*OOOOOX                        ",
".*OOOOOX                        ",
".*OOOOOX                        ",
".*OOOOOX                        ",
".*OOOOOX                        ",
".*OOOOOX                        ",
".*OOOOOX                        ",
".*OOOOOX                        ",
".*OOOOOX                        ",
".*OOOOOX                        ",
".*OOOOOX                        ",
".*+@@@$X                        ",
"..oooo.X                        ",
".*OOOOOX                        ",
".*OOOOOX                        ",
".*OOOOOX                        ",
".*OOOOOX                        ",
".*OOOOOX                        "
};
