/* XPM */
static char *c2a462348f474ca1c03ac6e4d7a400deaxDLijcRtv2NAQKb[] = {
/* columns rows colors chars-per-pixel */
"32 32 8 1 ",
"  c None",
". c #4F2913",
"X c #54311B",
"o c #54311C",
"O c #5B3C29",
"+ c #655444",
"@ c #868579",
"# c #94928B",
/* pixels */
"                        O@@@@@#o",
"                        O@@@@@#o",
"                        O@@@@@#o",
"                        O@@@@@#o",
"                        O@@@@@#o",
"                        O@@@@@#o",
"                        O@@@@@#o",
"                        O@@@@@#o",
"                        O@@@@@#o",
"                        O@@@@@#o",
"                        O######o",
"                        O.++++.o",
"                        O@@@@@#o",
"                        O@@@@@#o",
"                        O@@@@@#o",
"                        O@@@@@#o",
"                        O@@@@@#o",
"                        O@@@@@#o",
"                        O@@@@@#o",
"                        O@@@@@#o",
"                        O@@@@@#o",
"                        O@@@@@#o",
"                        O@@@@@#o",
"                        O@@@@@#o",
"                        O@@@@@#o",
"                        O######o",
"                        O.++++.o",
"                        O@@@@@#X",
"                        O@@@@@#X",
"                        O@@@@@#X",
"                        O@@@@@#X",
"                        O@@@@@#X"
};
